
<global>
amp_veltrack=0
ampeg_attack=0.005
ampeg_release=0.45
</global>

<group>
group_label=PP
lpc_hicc1=42
lpc_locc1=0

<region>
end=303037
hikey=a3
hivel=127
lokey=g#3
loop_end=275458
loop_mode=loop_continuous
loop_start=58776
loop_xfade=21064
lovel=0
lpc=e0wNQTUzwMF7iPtBr/PdwcSyo0FTVHrBhZNBQX51F8HXE+lAY+CGwKzmUj+Uaus/tV8iwFaQ9z/v2is+uSREwHdui0BfP2nAwCVKQOZHOsC9iAY/DCUcQFOvNMATQpE/
lpc_rms=-37.18
offset=426
pitch_keycenter=a3
release_start=276808
release_xfade=4800
sample=Soloviolin2_trill_whole_PP_A3.opus
</region>

<region>
end=278665
hikey=a4
hivel=127
lokey=g#4
loop_end=266838
loop_mode=loop_continuous
loop_start=46529
loop_xfade=16675
lovel=0
lpc=ZgTKQFrId8EUo5hB+pqKwYvXYUHfyxrB7sF3QAhdhb+gbdc/927Qv2p1kz/qh9K/6IEcQAFhFsAqLzVADAtUwNzNKkCXBfO/EbH4Pzusi79p3be/5pAgQMHWr7/Tkp8+
lpc_rms=-36.97
offset=3951
pitch_keycenter=a4
release_start=269521
release_xfade=4800
sample=Soloviolin2_trill_whole_PP_A4.opus
</region>

<region>
end=301633
hikey=a5
hivel=127
lokey=g#5
loop_end=269127
loop_mode=loop_continuous
loop_start=52224
loop_xfade=18716
lovel=0
lpc=bmB5QCUzxsDAZsNAGeJ2wPxrUkBZpR3AH6kWQN5dHcC4ejxAkYHGv5+RLz9ugqi+x+nIP0RJy79LXec/6Io8v4DzvT6GVeQ9Rz6JPxFbXr9mxqg+owJcPt/R9T4UTni+
lpc_rms=-34.85
offset=704
pitch_keycenter=a5
release_start=269782
release_xfade=4800
sample=Soloviolin2_trill_whole_PP_A5.opus
</region>

<region>
end=302411
hikey=a6
hivel=127
lokey=g#6
loop_end=280286
loop_mode=loop_continuous
loop_start=58478
loop_xfade=20957
lovel=0
lpc=La7PQGoTCMEhZ/NAKMCDwMZfO0C9hN2/aPW3P7FTL8Ak6JhArg8zwB5ZyT88OwXAWUIhQONfjcA6FwRAdFC5Pxr3K8A5xAFAz+KLvr+NFr5si20/+qKYv4Kkar+evHg/
lpc_rms=-36.13
offset=386
pitch_keycenter=a6
release_start=282287
release_xfade=4800
sample=Soloviolin2_trill_whole_PP_A6.opus
</region>

<region>
hikey=b3
hivel=127
lokey=a#3
loop_end=283606
loop_mode=loop_continuous
loop_start=48561
loop_xfade=17403
lovel=0
lpc=BDqKQTB3O8KHJ2dCS/I7wi2mAkJXn87ByNClQStddcEwWD1B6rQQwYkUmEAwzuY+CYD1v3vAUr4j059AC9U1wR3RgUG/QXrBZ6s4QfQ+EcEf6t1AN9JpwJHwqz/NGp++
lpc_rms=-29.48
offset=3765
pitch_keycenter=b3
release_start=288056
release_xfade=4800
sample=Soloviolin2_trill_whole_PP_B3.opus
</region>

<region>
end=296600
hikey=b4
hivel=127
lokey=a#4
loop_end=276050
loop_mode=loop_continuous
loop_start=49686
loop_xfade=17806
lovel=0
lpc=5CwpQYoF1MEezAVCyh/owX3no0FO/VXBlhTdQI92jMBXP89AyvL2wJTj00Abc4fA8UpuQGqAYcDsYltADGB8wIEamEDG8JTAKVU6QIPCF7ouxD/AoPmZQFQNf8C1S/g/
lpc_rms=-31.22
offset=14543
pitch_keycenter=b4
release_start=279559
release_xfade=4800
sample=Soloviolin2_trill_whole_PP_B4.opus
</region>

<region>
end=299571
hikey=b5
hivel=127
lokey=a#5
loop_end=264241
loop_mode=loop_continuous
loop_start=53924
loop_xfade=19325
lovel=0
lpc=gG2wQOJ3HMFyBTRBYBERwT1Y0kB7QI/Aot13QMvgY8DzjXBAmAgbwMEVnz+/pDC/D4cJQLQhRMBCXVdAQgMOwBx9pT/iBIm/V1EEQMrGDsDrwO4/jrerv1WFWD/1JY2/
lpc_rms=-35.06
pitch_keycenter=b5
release_start=281912
release_xfade=4800
sample=Soloviolin2_trill_whole_PP_B5.opus
</region>

<region>
end=306258
hikey=D7
hivel=127
lokey=a#6
loop_end=281403
loop_mode=loop_continuous
loop_start=56591
loop_xfade=19918
lovel=0
lpc=a8sMQWpQIsF9Tg5B2R3MwKyorEAtFhTAWuesP1YmIb+LWDlAaG/qvkoXx75FAXTAkg6SPzPaWz9mRrE+a3g4v6WpJz9LrvS+cpv4P5FMAsBix5k/Cd46wB96pkBNJA7A
lpc_rms=-30.29
offset=8444
pitch_keycenter=B6
release_start=288892
release_xfade=4800
sample=Soloviolin2_trill_whole_PP_B6.opus
</region>

<region>
hikey=c#4
hivel=127
lokey=c4
loop_end=279331
loop_mode=loop_continuous
loop_start=48468
loop_xfade=17370
lovel=0
lpc=BGrjQeH3osJhfM5CLruhwv4aQEIe1/fBXvbBQflynsHe7IVB/OVPwXkuBEGn43nA9jddQOfrRcDmE6pAd9Eewf3ANUGDkBrBmRYRQVs+/sCu+5o/PBOqQPUhvMBVzhZA
lpc_rms=-28.75
offset=997
pitch_keycenter=c#4
release_start=281055
release_xfade=4800
sample=Soloviolin2_trill_whole_PP_C#4.opus
</region>

<region>
end=298376
hikey=c#5
hivel=127
lokey=c5
loop_end=282923
loop_mode=loop_continuous
loop_start=52664
loop_xfade=18873
lovel=0
lpc=ANmJQa76KcIxolBCu/Ytwmtr5EG0wn3BI0eAQIiqYbycXItA9xTNwAqbq0AqtQvA5YeuP81KDMCJJLdANA0Owc0uLEGNqCbB7NveQNrSccD9c3Q9RB99QEWhtMBVAn9A
lpc_rms=-31.48
offset=564
pitch_keycenter=c#5
release_start=284679
release_xfade=4800
sample=Soloviolin2_trill_whole_PP_C#5.opus
</region>

<region>
hikey=c#6
hivel=127
lokey=c6
loop_end=286458
loop_mode=loop_continuous
loop_start=49309
loop_xfade=17671
lovel=0
lpc=APDwQPwWRcEP5E5BmC/3wLkApkCDx07AqYzuP0n7ML+0M4s/6u1rv1NYiz8BNWG/fzm9P750fr+NLaE/WpN2v56/CD/RBXE/iNk0v8HWNL861hBAgKq6wFHcoECxGjrA
lpc_rms=-32.59
offset=2855
pitch_keycenter=c#6
release_start=285611
release_xfade=4800
sample=Soloviolin2_trill_whole_PP_C#6.opus
</region>

<region>
hikey=d#4
hivel=127
lokey=d4
loop_end=269966
loop_mode=loop_continuous
loop_start=47195
loop_xfade=16914
lovel=0
lpc=A+ghQYVq2MEM4wRClZ/LwbTFckGpQyfBkAvwQCBTo8BxqpZAqiaNwJNk+D+Ip88/3DsfwIheTD43plBAKq6hwNovs0AweZ3A0hpWQONjHMDclaM/ADQKPX8cir8a9l4/
lpc_rms=-34.80
offset=2141
pitch_keycenter=d#4
release_start=278528
release_xfade=4800
sample=Soloviolin2_trill_whole_PP_D#4.opus
</region>

<region>
end=307964
hikey=d#5
hivel=127
lokey=d5
loop_end=290803
loop_mode=loop_continuous
loop_start=53232
loop_xfade=19077
lovel=0
lpc=ODbeQCG+fMGCf5RBCXV5wWpoRkGU/gTBy1BlQH2Y9L/3/hhA5pGZvw3Uq78i7kJA/aEpwPAhyj9w56U+tY5JvyYrCD84wK6+bBoAvDsgvT/YAvu/tG1RP0aJ2T4UjDQ9
lpc_rms=-38.27
offset=1177
pitch_keycenter=d#5
release_start=290976
release_xfade=4800
sample=Soloviolin2_trill_whole_PP_D#5.opus
</region>

<region>
end=298709
hikey=d#6
hivel=127
lokey=d6
loop_end=279636
loop_mode=loop_continuous
loop_start=51661
loop_xfade=18514
lovel=0
lpc=y+ixQMRFEMFBlCJBWlHowF6KlkAd0sa//z7KPrHnHr+2xhJAfkvnv/N/dT9Y/aW+bsGSPwxxm79oD38/AWc1PrTFZjpbiJ2/oaolQPA7tsAn3LpA58eSwEcHC0A6nRq/
lpc_rms=-33.96
offset=1885
pitch_keycenter=d#6
release_start=280079
release_xfade=4800
sample=Soloviolin2_trill_whole_PP_D#6.opus
</region>

<region>
end=318137
hikey=f4
hivel=127
lokey=e4
loop_end=291971
loop_mode=loop_continuous
loop_start=57621
loop_xfade=20650
lovel=0
lpc=sEMzQWiQ9cEEfxtCO0v7wT0LpEExE2zBu20wQU02DsFmRBJBU6XqwDFhAkDzKxtAhtEQwKpXN7+JrF9AtIJvwFPPMkCJtAXAVgjPPzdVlL9mWo6/Rsd1QLoqjsCMqA1A
lpc_rms=-39.52
offset=9908
pitch_keycenter=f4
release_start=293945
release_xfade=4800
sample=Soloviolin2_trill_whole_PP_F4.opus
</region>

<region>
end=320982
hikey=f5
hivel=127
lokey=e5
loop_end=296864
loop_mode=loop_continuous
loop_start=55976
loop_xfade=20060
lovel=0
lpc=OqN2QPVM5sCpB/NAFuu3wJWAikB7lhjA/bNfP1XJib+QviZAcLQxwCDl+T+W/qS/D9adP8tDjL+tYY8/CfFIv5ruGT9KhgY/zg9yv6T21T8+quy/8pHLPym3Nr8UQrU+
lpc_rms=-37.35
offset=14771
pitch_keycenter=f5
release_start=297170
release_xfade=4800
sample=Soloviolin2_trill_whole_PP_F5.opus
</region>

<region>
hikey=f6
hivel=127
lokey=e6
loop_end=290130
loop_mode=loop_continuous
loop_start=50690
loop_xfade=18166
lovel=0
lpc=r0WbQPjx58DcsNlAleqcwCrVf0AQfTDA6BsGQIkvsb8ZUb4/sXY1v1kLIj9iiXq/fG8TQMruAsD8EPc/A/wPwNj7FkBDmIjAf96iQNRicsAzhOc/aqcCvgiN4j10fa67
lpc_rms=-39.17
offset=14012
pitch_keycenter=f6
release_start=290906
release_xfade=4800
sample=Soloviolin2_trill_whole_PP_F6.opus
</region>

<region>
hivel=127
key=g3
loop_end=286828
loop_mode=loop_continuous
loop_start=49265
loop_xfade=17656
lovel=0
lpc=XCIZQe4uz8FIFAVCUIfkwefoo0G013LBEmQ6QWKrEsF+I+hAqEenwFkHR0B0uSW/jk8pv3JEUT5WaDRAyz/BwAVV3UCUFaHAwtMrQLuAr78fo4O/AQFiQKGPY8Di9b4/
lpc_rms=-32.29
offset=12738
release_start=294173
release_xfade=4800
sample=Soloviolin2_trill_whole_PP_G3.opus
</region>

<region>
end=317920
hikey=g4
hivel=127
lokey=f#4
loop_end=282311
loop_mode=loop_continuous
loop_start=58809
loop_xfade=21076
lovel=0
lpc=aykSQfvJw8Gg5PVBmP3CwctMc0EU1ifBvJLhQBKymcC/YbFAz46uwO7N5T+lo6o/tk4hvlyWPcD/Ka5AHvTZwHJEAUHpHgDBZo++QBH6SMBV+3Q/vjrSvnnO9T5Ruta9
lpc_rms=-35.96
offset=17461
pitch_keycenter=g4
release_start=290308
release_xfade=4800
sample=Soloviolin2_trill_whole_PP_G4.opus
</region>

<region>
end=306430
hikey=g5
hivel=127
lokey=f#5
loop_end=283893
loop_mode=loop_continuous
loop_start=55744
loop_xfade=19977
lovel=0
lpc=EPF6QAYP68AjG/9A10XBwN2td0AqfAjAdA7YP5hVAsAOmTNAvGgMwAkCeT/JVHe+kSOHP9pDjb9Mrz0/eZKAP9RJCsAlwCFAWJ+Rv5H7Pb69rdE+kZMSPr5gob65XNs+
lpc_rms=-38.25
offset=6767
pitch_keycenter=g5
release_start=285369
release_xfade=4800
sample=Soloviolin2_trill_whole_PP_G5.opus
</region>

<region>
end=307492
hikey=g6
hivel=127
lokey=f#6
loop_end=275939
loop_mode=loop_continuous
loop_start=56485
loop_xfade=20243
lovel=0
lpc=B/utQPF128BWD9lAEi+QwF2iSECDu62/RPZdP74hJ8Bdc2ZAH5QPwDcnBkAgDY6/8KvaP8razL9EY4k/aYBdwDYEWkDT3BbAPwCqP1E4M79qz9I9i0yBP8dOCD/Hyg2/
lpc_rms=-35.66
pitch_keycenter=g6
release_start=282465
release_xfade=4800
sample=Soloviolin2_trill_whole_PP_G6.opus
</region>
</group>

<group>
group_label=MF
lpc_hicc1=84
lpc_locc1=43

<region>
hikey=a3
hivel=127
lokey=g#3
loop_end=282223
loop_mode=loop_continuous
loop_start=52211
loop_xfade=18711
lovel=0
lpc=TXcPQXXKyMH/TwJCOi/QwVoxfUE/Oy/BWmIVQQSe1cC1gkpAkOiov1ANyz5DV0Y/OvSavyLrFj83Hpg/JElHwJ5UhkDdCILAfh5UQHUi8b8mTUs+CPeHPsToH74EUzU9
lpc_rms=-26.81
offset=9701
pitch_keycenter=a3
release_start=300042
release_xfade=4800
sample=Soloviolin2_trill_whole_MF_A3.opus
</region>

<region>
hikey=a4
hivel=127
lokey=g#4
loop_end=283763
loop_mode=loop_continuous
loop_start=48226
loop_xfade=17283
lovel=0
lpc=rrm/QGQUbMGOkIlBHlFOwabpEUHf8fjA0fHBQHAPVsDKz3k/E2wmP+c3FsDYuVxAI6RAwDcL/D9VVD6/ztaRvseGEj8b51a9DJ0HP3mz2L/fHB9Alo8twIHTD0CiNWe/
lpc_rms=-22.94
pitch_keycenter=a4
release_start=285080
release_xfade=4800
sample=Soloviolin2_trill_whole_MF_A4.opus
</region>

<region>
hikey=a5
hivel=127
lokey=g#5
loop_end=283648
loop_mode=loop_continuous
loop_start=47842
loop_xfade=17145
lovel=0
lpc=BsOHQPiKwsCucMJA6AFBwEVlAkDUOAo98iAgvrBnY71TJQlApy/RvwzW4D+kIVS/BqrtPx97Tb+/z20/r17KPnckCr47umw/dh4KvYS2kj9GqXO/b4KiP6lX6jxlMwc/
lpc_rms=-17.88
pitch_keycenter=a5
release_start=284179
release_xfade=4800
sample=Soloviolin2_trill_whole_MF_A5.opus
</region>

<region>
hikey=a6
hivel=127
lokey=g#6
loop_end=280636
loop_mode=loop_continuous
loop_start=47983
loop_xfade=17196
lovel=0
lpc=Pb/2QCetmsC/EtpAp2hPv01kYkAet2E/PpVPQLybXT5eNltAujqRP3c7UkAb+/g9vM9BPyDmhMA7/WA+vkNqv+4dA8Cb6Ta/ZrUFwENi3L1ThyjAp7jOvikmt79JOzrA
lpc_rms=-17.37
offset=151
pitch_keycenter=a6
release_start=285504
release_xfade=4800
sample=Soloviolin2_trill_whole_MF_A6.opus
</region>

<region>
hikey=b3
hivel=127
lokey=a#3
loop_end=275787
loop_mode=loop_continuous
loop_start=47290
loop_xfade=16948
lovel=0
lpc=lsd1QXARL8Kx6GNCvTs0wqw2wkFl9lPBVUAoQXtsC8HiPc9AHnB2wDFDi7+RtZ9AT79HwIO8Pr+kkI5AgvH2wBwfIEF/8AzBxYCZQBuD77/jXow+o/OdPr9kP78Xtic/
lpc_rms=-20.41
offset=3020
pitch_keycenter=b3
release_start=279566
release_xfade=4800
sample=Soloviolin2_trill_whole_MF_B3.opus
</region>

<region>
hikey=b4
hivel=127
lokey=a#4
loop_end=277582
loop_mode=loop_continuous
loop_start=47261
loop_xfade=16937
lovel=0
lpc=ogsKQVB5n8FIja1BPQp+wXb4MkGcjd3AGi+HP49kND/DjSVAig6HwHQtWEAL3iTAtmYNQHd79b83IPQ/i9PEv6PXD0AI90jAclctQBYKz76568K/vZz3P5pmvr8FBYw/
lpc_rms=-17.93
offset=4499
pitch_keycenter=b4
release_start=283489
release_xfade=4800
sample=Soloviolin2_trill_whole_MF_B4.opus
</region>

<region>
hikey=b5
hivel=127
lokey=a#5
loop_end=288862
loop_mode=loop_continuous
loop_start=48844
loop_xfade=17504
lovel=0
lpc=UhmRQAKE1sCa7eRA1UqZwGqpdEDizvy/Ni78P7pLuL+1nRJA9zqdv8uCpD9URtO+Jji3Px14lL8v5+M/ZRZhv1NjkD8bBhC/G0baP0NVab8dQqg/sAfov4DI5j+4qmO/
lpc_rms=-18.00
offset=2798
pitch_keycenter=b5
release_start=290316
release_xfade=4800
sample=Soloviolin2_trill_whole_MF_B5.opus
</region>

<region>
hikey=D7
hivel=127
lokey=a#6
loop_end=281096
loop_mode=loop_continuous
loop_start=47367
loop_xfade=16975
lovel=0
lpc=5H3bQOg7GMDa+2VAnM5Ov0t5D0Cs6vY+10sKQMr/YL2foTBAg7lnP/VtjD/PkWPASa0+wA3xBr42R1U+z9TNvjzvxD0HGb++8a8Yvpy9JL5rgBe/0XSEv7/bwT4w8FRA
lpc_rms=-19.35
offset=234
pitch_keycenter=B6
release_start=283677
release_xfade=4800
sample=Soloviolin2_trill_whole_MF_B6.opus
</region>

<region>
hikey=c#4
hivel=127
lokey=c4
loop_end=274420
loop_mode=loop_continuous
loop_start=47473
loop_xfade=17013
lovel=0
lpc=y8GwQftIg8IDo7FCH0qUwpp1KkJV9aHB908gQXb7pcDE90lAhxvMv3sY0b8iGkRAIlgUvmoqXsDb6ctAIlEiwbHYa0GNRXfBU+40QZLtj8DlTC+/BxkKQCHlur+xsKI+
lpc_rms=-18.20
offset=412
pitch_keycenter=c#4
release_start=280867
release_xfade=4800
sample=Soloviolin2_trill_whole_MF_C#4.opus
</region>

<region>
hikey=c#5
hivel=127
lokey=c5
loop_end=290689
loop_mode=loop_continuous
loop_start=48884
loop_xfade=17519
lovel=0
lpc=WZwIQbQbn8HYtrJB+ISEwbcwOkH5PQbB1UtDQBXGej3SlcA/pPMcwFo9wj6P7GQ/5TtWP9Pc879J1do/5sf/vw/GT0CAlDbAXnPbP8wzSb9/aLm9cC2NP9PUlb+f4Fk/
lpc_rms=-17.45
pitch_keycenter=c#5
release_start=291928
release_xfade=4800
sample=Soloviolin2_trill_whole_MF_C#5.opus
</region>

<region>
hikey=c#6
hivel=127
lokey=c6
loop_end=284473
loop_mode=loop_continuous
loop_start=47843
loop_xfade=17146
lovel=0
lpc=bbOqQJYz8cCkchZB2/S+wFJDtkBc4BHAOKsyQAefHb9pUAFAuSKUPhUtkT/l8TS9qQsTQCdAfL95M0BASHhBvzDaBUDsITi+nOoMQFpb7r8IDXVA0tR/wPGMVEBay1O/
lpc_rms=-16.03
offset=531
pitch_keycenter=c#6
release_start=285860
release_xfade=4800
sample=Soloviolin2_trill_whole_MF_C#6.opus
</region>

<region>
hikey=d#4
hivel=127
lokey=d4
loop_end=272514
loop_mode=loop_continuous
loop_start=47277
loop_xfade=16943
lovel=0
lpc=l0kEQWLPtcH98e5Ba8vNwcfRkEGka1HBZdsXQeiJ4MCZDOVAENj6wOBKqUDknsC/FW27Pq1Zfb+Bu5M/QFKav0U0AUCJLau/zwAKv0pO4T9BQQPACb/MP98uiL9+TuI+
lpc_rms=-23.31
offset=1862
pitch_keycenter=d#4
release_start=279958
release_xfade=4800
sample=Soloviolin2_trill_whole_MF_D#4.opus
</region>

<region>
hikey=d#5
hivel=127
lokey=d5
loop_end=279003
loop_mode=loop_continuous
loop_start=47702
loop_xfade=17095
lovel=0
lpc=1+KXQLmeH8H3hyxB2/QEwY0h40AmYrLABCQiQGAaqr6Y7rw+xXszvoblhb8P88M/5OI6v8gCtD4Atxu/ejiSPx4B8L7xA0C/gxTtP/35wr83CtM/sLkFwKb+BkBRA0O/
lpc_rms=-22.75
offset=230
pitch_keycenter=d#5
release_start=279386
release_xfade=4800
sample=Soloviolin2_trill_whole_MF_D#5.opus
</region>

<region>
hikey=d#6
hivel=127
lokey=d6
loop_end=285105
loop_mode=loop_continuous
loop_start=48486
loop_xfade=17376
lovel=0
lpc=LQemQOXfxcAcmQJBXa+dwCJnoUBb+Zu/UBknQIjgNr+XmxlAIX/NPhAyAj/0R9c/uqtQP2zcyT58NZw/AkCzPx/7PT+l1jW/FBBbQITRmcCg5JpAgcBcwCpMAkBSnna/
lpc_rms=-18.46
offset=182
pitch_keycenter=d#6
release_start=286174
release_xfade=4800
sample=Soloviolin2_trill_whole_MF_D#6.opus
</region>

<region>
hikey=f4
hivel=127
lokey=e4
loop_end=284689
loop_mode=loop_continuous
loop_start=48683
loop_xfade=17447
lovel=0
lpc=eAAEQZbArMFjjdVBj9Cqwd/dc0Fyq0LBjLMAQVTLecAAeENA+GdtwEGonz/AD+0/wj0NwGNMjD8PWF2/3azePn8bbT8FqnC/aEvzPnqiDr9aV88/mfwFwPUPoz/xFn6+
lpc_rms=-21.90
offset=170
pitch_keycenter=f4
release_start=286878
release_xfade=4800
sample=Soloviolin2_trill_whole_MF_F4.opus
</region>

<region>
hikey=f5
hivel=127
lokey=e5
loop_end=288734
loop_mode=loop_continuous
loop_start=48486
loop_xfade=17376
lovel=0
lpc=9+RvQN2mwMDS1LFAEp5jwHMESEBkGQTArxmOPzzUX7+LxXI/ICzwvkwfMLuCj7Q+llFpvLDvYb9WeNc/XTOQvzHugD/tP72+owCKPusFPj/j15++jP3mvVp9/T7hHO29
lpc_rms=-19.51
pitch_keycenter=f5
release_start=288171
release_xfade=4800
sample=Soloviolin2_trill_whole_MF_F5.opus
</region>

<region>
hikey=f6
hivel=127
lokey=e6
loop_end=277054
loop_mode=loop_continuous
loop_start=46837
loop_xfade=16785
lovel=0
lpc=1sdpQGrKd8BUJJtAzqoywDszN0Dt/aq+rEGfP0UYVb6N7QtAzIEGvp2MuT9EBsM+6qGrP/Eurz3ThfU/xh3rvwB6PUATMz7AB2pIQEP/ur/w01E/rp9tPgHhUL344ZQ9
lpc_rms=-21.52
offset=6145
pitch_keycenter=f6
release_start=278188
release_xfade=4800
sample=Soloviolin2_trill_whole_MF_F6.opus
</region>

<region>
end=301006
hivel=127
key=g3
loop_end=272673
loop_mode=loop_continuous
loop_start=54904
loop_xfade=19676
lovel=0
lpc=zl4CQTY8tsGjT/JB2FnFwR3VZUHCQQPBivPBQLxFrcDzpplAtnwewB9Nvb9YUVNASvjDv0bkmL+0WUBA0qdTwDjsP0D8uDnAMho+QN4Np791HMe/T28wQG2MuL9UVXM+
lpc_rms=-24.02
offset=504
release_start=280881
release_xfade=4800
sample=Soloviolin2_trill_whole_MF_G3.opus
</region>

<region>
hikey=g4
hivel=127
lokey=f#4
loop_end=281252
loop_mode=loop_continuous
loop_start=48401
loop_xfade=17345
lovel=0
lpc=K9vdQHAFjcGYDqZBcKhywVjwHUG6ovPA1kScQH0BDcAZDLc/SEbRvx9Nxz78Pmo/oFbEvmDuOL+eYaY/tTekv49BgD8iXuy+M5teP64Ly79/Og9AQu0iwChUAkD6+Ee/
lpc_rms=-21.80
offset=285
pitch_keycenter=g4
release_start=282158
release_xfade=4800
sample=Soloviolin2_trill_whole_MF_G4.opus
</region>

<region>
hikey=g5
hivel=127
lokey=f#5
loop_end=276810
loop_mode=loop_continuous
loop_start=47513
loop_xfade=17028
lovel=0
lpc=WUlnQLWzlcCsz4VA8nYGwL0QBUAGPq2/J+qnP+2NWb/n1pg/kqx4vjIQsD7daoM+5thHP8fLGr+OzJY/L3jMvnq3ID8pkIa+SgBJP/IMtD5sfIS+PPxCP8Ed4b5GUm8/
lpc_rms=-19.04
offset=377
pitch_keycenter=g5
release_start=277496
release_xfade=4800
sample=Soloviolin2_trill_whole_MF_G5.opus
</region>

<region>
hikey=g6
hivel=127
lokey=f#6
loop_end=288017
loop_mode=loop_continuous
loop_start=48734
loop_xfade=17465
lovel=0
lpc=rmyAQPgsVsB9IIhAsYzPv4HvRUAH6yq/4I0LQDSNcb/NThNAEoyrPuUV0T9QTwY+se49QFx68r8y7ihAkzTEvw1HyT+ztfy+CewOP2xWm72CKx2+K+2HP1rCvbyRnlQ+
lpc_rms=-20.23
offset=227
pitch_keycenter=g6
release_start=288720
release_xfade=4800
sample=Soloviolin2_trill_whole_MF_G6.opus
</region>
</group>

<group>
group_label=FF
lpc_hicc1=127
lpc_locc1=85

<region>
hikey=a3
hivel=127
lokey=g#3
loop_end=261764
loop_mode=loop_continuous
loop_start=46801
loop_xfade=16772
lovel=0
lpc=+kTwQAMJqsF43OtByl/SwWw7i0GMqibBQE/MQOJZe8C1SzxA2NU5wMN99z/WYQ6/K/9Svpw+7T7hKKw+UygRwCXIdEApWWfAcuMLQENFf7+agIc/MF3Pv10/zD9kUD2/
lpc_rms=-20.30
pitch_keycenter=a3
release_start=274514
release_xfade=4800
sample=Soloviolin2_trill_whole_FF_A3.opus
</region>

<region>
hikey=a4
hivel=127
lokey=g#4
loop_end=277537
loop_mode=loop_continuous
loop_start=48212
loop_xfade=17278
lovel=0
lpc=oGObQJ9GJMEHfTFBkCYLwa1/6ECuALHAGU9GQC8fZ7/Ua5m9bYzTPg4Zgb8FVp0/cN5qv3XjKT+ZISI/R1HSv9WO4T9/a5+/j9TEP0Ot4L9uL9Q/vDKev+QKgD81ARS/
lpc_rms=-18.89
pitch_keycenter=a4
release_start=279989
release_xfade=4800
sample=Soloviolin2_trill_whole_FF_A4.opus
</region>

<region>
hikey=a5
hivel=127
lokey=g#5
loop_end=279906
loop_mode=loop_continuous
loop_start=48085
loop_xfade=17232
lovel=0
lpc=OAV0QBpUlcBg+YhAKtoPwPtEFEBn5j+/Bh2bPxbVe74sUIQ+kByBP8eYlz0Mdhe+0nU8Pz+0AD/B7Lw+yvdePiRlUj72rHE/2+KnPt/akL6yPJQ/i20Fv/iupD9nKE2+
lpc_rms=-18.13
pitch_keycenter=a5
release_start=283350
release_xfade=4800
sample=Soloviolin2_trill_whole_FF_A5.opus
</region>

<region>
hikey=a6
hivel=127
lokey=g#6
loop_end=266004
loop_mode=loop_continuous
loop_start=46673
loop_xfade=16726
lovel=0
lpc=MJrfQBr+pMBX5vZAFlEzwGFvoUA9VqO+CadXQBRpfz+WjxVA8XAEQBeOCEBv4CU/A2PnviBelL8ZJw7AUJTAPwOefcDdI4c/90YlwMH9or49Yv6/vd6Gv2YljL+xdh3A
lpc_rms=-19.90
pitch_keycenter=a6
release_start=276486
release_xfade=4800
sample=Soloviolin2_trill_whole_FF_A6.opus
</region>

<region>
hikey=b3
hivel=127
lokey=a#3
loop_end=280829
loop_mode=loop_continuous
loop_start=48064
loop_xfade=17225
lovel=0
lpc=ZHFUQQ6rHMJemFtCzRNAwvX04EEdUkvBGALBQLAFesA4LWVAOqpdwP1FgT8zlKo/YLPVv9vQ5T+T9TG/jApDwBra9kAL3f/ANLOJQOyxLr/N2JW+AX4Ev63Gaz9vHfG+
lpc_rms=-15.23
offset=299
pitch_keycenter=b3
release_start=287270
release_xfade=4800
sample=Soloviolin2_trill_whole_FF_B3.opus
</region>

<region>
hikey=b4
hivel=127
lokey=a#4
loop_end=273870
loop_mode=loop_continuous
loop_start=46286
loop_xfade=16587
lovel=0
lpc=wLTcQKVaaMHhBW1Bh10xwUgnEEGg+NbAt5IVQMEeoj4WP54+vd1mvwr8iL5V99U+xZHkvrQLnj+4mda+n8pvv1Dsrj9zDYm+TGoaP3Hvkr+8Gzo/7/RXvrq60T5sY5y9
lpc_rms=-17.60
offset=188
pitch_keycenter=b4
release_start=275786
release_xfade=4800
sample=Soloviolin2_trill_whole_FF_B4.opus
</region>

<region>
hikey=b5
hivel=127
lokey=a#5
loop_end=274688
loop_mode=loop_continuous
loop_start=56268
loop_xfade=20165
lovel=0
lpc=hUCCQGtDlcBUJ3dAkLGqv6k43z8A2Ia+K5y/Pw8NM79Nc10/ATBuP9jY8D7bzFi+/KdZP4X19T6wJHA/Qt2iPaatrD49KfY++0rLP1obE7/PjZU/Rg4xv6okGj8OZ6I+
lpc_rms=-19.18
pitch_keycenter=b5
release_start=281677
release_xfade=4800
sample=Soloviolin2_trill_whole_FF_B5.opus
</region>

<region>
end=312289
hikey=D7
hivel=127
lokey=a#6
loop_end=277371
loop_mode=loop_continuous
loop_start=86645
loop_xfade=31051
lovel=0
lpc=wW8TQeDko8AqIbVA9BOnv0eZJ0DvCsQ+FqbmPwRcnD+K74w/pl/PP9sVX71njeXAgt29vyFkaL40wPm/XSDIvimHKb8Apu2/7SeWvc5h7r/z0hQ+TntJwK4pkUCx38A+
lpc_rms=-21.82
pitch_keycenter=B6
release_start=280521
release_xfade=4800
sample=Soloviolin2_trill_whole_FF_B6.opus
</region>

<region>
end=315608
hikey=c#4
hivel=127
lokey=c4
loop_end=279280
loop_mode=loop_continuous
loop_start=52860
loop_xfade=18944
lovel=0
lpc=W1pcQWsCIMIpkF5CkQFJwt7dBUKd3p7B221GQWZxC8HG+N5As2eewIUHtD/VtRy+Omv4P0DDa8ABm6ZAWd/4wASCNEH6JzfBrnv/QOdCVsDo2ZA/Icyrv6d4pz+zkBm/
lpc_rms=-15.86
pitch_keycenter=c#4
release_start=286752
release_xfade=4800
sample=Soloviolin2_trill_whole_FF_C#4.opus
</region>

<region>
hikey=c#5
hivel=127
lokey=c5
loop_end=280675
loop_mode=loop_continuous
loop_start=48171
loop_xfade=17263
lovel=0
lpc=rHbqQF8ygMEWtYpBZIRMwc2kE0FENr7AkXxBPxkcYUDJ8WbAmV4FQEyx5b/fq3k+3dEDQPv0QMDFvUNAKmcxwE8+K0ATirK/s/ZVP/GXDb+mlAQ/rIUvvnKorD7Lx7I9
lpc_rms=-17.45
pitch_keycenter=c#5
release_start=284310
release_xfade=4800
sample=Soloviolin2_trill_whole_FF_C#5.opus
</region>

<region>
hikey=c#6
hivel=127
lokey=c6
loop_end=280469
loop_mode=loop_continuous
loop_start=48083
loop_xfade=17232
lovel=0
lpc=nHOdQI+WvsCjxtxA/sZUwK83dUAft4C/fvxLQJT2Ub+o3A9Ah+VQP7hopj83m6o+QlHkPzfGvz77Sfk/KYrAPt443j+t5YU++xwnQIzC+r/sRXpAuNs9wI05H0BxEbW9
lpc_rms=-16.50
pitch_keycenter=c#6
release_start=286275
release_xfade=4800
sample=Soloviolin2_trill_whole_FF_C#6.opus
</region>

<region>
hikey=D#4
hivel=127
lokey=d4
loop_end=274221
loop_mode=loop_continuous
loop_start=47494
loop_xfade=17021
lovel=0
lpc=IBs7QZ1OBML3NS5C7twVwkT2zEEKcIDBhrQSQf6JmcBBlStAH/u0v6lwzT6t9kK/JjhmP3t5HL1qV8w/bOHCwO3UCkGWU9/ACiaNQKm/+b94mu8+0RffvvtZwT79t3m9
lpc_rms=-16.87
offset=23
pitch_keycenter=d#4
release_start=278929
release_xfade=4800
sample=Soloviolin2_trill_whole_FF_D#4.opus
</region>

<region>
hikey=d#5
hivel=127
lokey=d5
loop_end=276278
loop_mode=loop_continuous
loop_start=47082
loop_xfade=16873
lovel=0
lpc=iq2qQG4TLsHlNDVBp779wI3swkBmW4TAsA/GP5j83T5OMS2/qyE0P/Rjgr9icUI/WPYPvybSBz+SVQc/vQ65vzrUvj9E06++w5IvP+O4sL9Aje4/wH5hvzrjyj4UAA8+
lpc_rms=-20.46
pitch_keycenter=d#5
release_start=279149
release_xfade=4800
sample=Soloviolin2_trill_whole_FF_D#5.opus
</region>

<region>
hikey=d#6
hivel=127
lokey=d6
loop_end=277319
loop_mode=loop_continuous
loop_start=51073
loop_xfade=18303
lovel=0
lpc=neF5QLb0lcDGs6xAcrVOwEcAV0CTK5e/h8T8P5oeQL/CeAJAp95pvpZhvD+cIIa+eQu5P0y6Vr0gCs0/+WAfv7Mu+T9DMMq/HNdIQN62gsBRSnRA7hgAwPcfWz+AjLc8
lpc_rms=-20.12
pitch_keycenter=d#6
release_start=280107
release_xfade=4800
sample=Soloviolin2_trill_whole_FF_D#6.opus
</region>

<region>
hikey=f4
hivel=127
lokey=e4
loop_end=274864
loop_mode=loop_continuous
loop_start=48795
loop_xfade=17487
lovel=0
lpc=X5XzQLpXmcHD17dB1+6QwUThR0EUBhPBIC2pQLODqL8GY9w+RbkNwIptzj9kXk0/LukQwOxI7D/sQsa+TuKzv4k1OEDiZiXAKnCZPwf32T7g4DC/hyKyPigLtr0UG0Y9
lpc_rms=-20.39
pitch_keycenter=f4
release_start=282042
release_xfade=4800
sample=Soloviolin2_trill_whole_FF_F4.opus
</region>

<region>
hikey=f5
hivel=127
lokey=e5
loop_end=274600
loop_mode=loop_continuous
loop_start=47481
loop_xfade=17016
lovel=0
lpc=zbRBQL5/hcDY03VA5BwbwOo34D9kOK2+pGSyPuZBFL8Q5Ag/nbkHPv3xw75d/bU9T8ecPlPLrr4/IR4//LAbvvEv17xUalY/N1dJvmzQgz7lzic9QjCHPl6+Tb252SA+
lpc_rms=-19.58
pitch_keycenter=f5
release_start=279334
release_xfade=4800
sample=Soloviolin2_trill_whole_FF_F5.opus
</region>

<region>
hikey=f6
hivel=127
lokey=e6
loop_end=285432
loop_mode=loop_continuous
loop_start=48950
loop_xfade=17542
lovel=0
lpc=C5twQAepVMDfZIpAvPq5vz9RIEC3Twe/Ra4HQNOmxbyRfcA/gKQ9PzjIoD+fN5s+OXHQP6C9QT85MbA/wY5bv9Um5j+nZrS/z7rzPxxRyr+2q58/ZurLvgzqLj4mWGS9
lpc_rms=-21.01
pitch_keycenter=f6
release_start=288891
release_xfade=4800
sample=Soloviolin2_trill_whole_FF_F6.opus
</region>

<region>
hivel=127
key=g3
loop_end=282871
loop_mode=loop_continuous
loop_start=48957
loop_xfade=17545
lovel=0
lpc=x5n6QG5HtsEynQNC8of0wZegpUF0hEHBadnkQBg9aMD/HYw/cRyavorovjxI/RC+lEt9P3zi3r8TFw5AfZ4rwE3DbECbiIPANRE+QC7edb9AQy68V0jxveSQ/T4ht7m+
lpc_rms=-20.77
release_start=289976
release_xfade=4800
sample=Soloviolin2_trill_whole_FF_G3.opus
</region>

<region>
hikey=g4
hivel=127
lokey=f#4
loop_end=286529
loop_mode=loop_continuous
loop_start=48353
loop_xfade=17328
lovel=0
lpc=LsvXQDjMhsHDkqRBZt2FwXFZPUExUw7BqSS5QAb6AMBLjYQ+aOa0vw7ikD8aH8Q+hpZsv6WW5z5gkr0+NAh+v+hdwT8aN/i/UZ4IQP8lob/7cA0/6HCtvEDoqL3uiWw9
lpc_rms=-21.05
pitch_keycenter=g4
release_start=286510
release_xfade=4800
sample=Soloviolin2_trill_whole_FF_G4.opus
</region>

<region>
hikey=g5
hivel=127
lokey=f#5
loop_end=288074
loop_mode=loop_continuous
loop_start=49929
loop_xfade=17893
lovel=0
lpc=9gRdQGHxkcD1n4xA5EwdwLr9E0BnCI2/4/TOP5swtb/sOLM/zPu2PeegSL5Rcdk99osvPw8oGD7NE6Q+/MSkPph9BD0B/Es/4D+iPqEoyj3AaCu+UqSSPwUsQ78oblY/
lpc_rms=-17.66
pitch_keycenter=g5
release_start=291145
release_xfade=4800
sample=Soloviolin2_trill_whole_FF_G5.opus
</region>

<region>
hikey=g6
hivel=127
lokey=f#6
loop_end=283789
loop_mode=loop_continuous
loop_start=48350
loop_xfade=17327
lovel=0
lpc=eLeYQGd6f8D914NAQelgv/jRCEBEL9W+OKC2P45hhL/uJBg/aWN5PyeE+r4p2yE8WJVBP8F7m76EHm2/ddLbv0HlXz9fAKy/+TKkvZNBMb8pi/W+BbSwPkNbCT9vaqW+
lpc_rms=-18.67
pitch_keycenter=g6
release_start=285177
release_xfade=4800
sample=Soloviolin2_trill_whole_FF_G6.opus
</region>
</group>